<svg width="822" height="364" viewBox="0 0 822 364" fill="none" xmlns="http://www.w3.org/2000/svg">
<path d="M145.833 272.416V247.333C141.166 255.499 133.583 262.499 123.083 267.749C112.583 272.999 100.333 275.916 86.3331 275.916C73.4998 275.916 61.8331 273.583 51.3332 269.499C40.8332 265.416 31.4999 258.999 23.9166 250.833C16.9166 243.249 11.0833 233.333 6.41665 221.666C2.33333 209.999 0 197.166 0 182.583C0 168.583 2.33333 155.166 6.41665 144.083C10.5 132.416 16.9166 122.5 24.4999 114.333C32.0832 106.166 41.4165 100.333 51.9165 95.6664C62.4165 91.5831 74.0831 89.2497 86.9164 89.2497C100.333 89.2497 112 91.5831 121.916 96.2497C131.833 100.916 138.833 106.75 144.083 113.75V0H183.166V272.416H145.833ZM92.7497 123.083C85.1664 123.083 78.1664 124.25 71.7498 127.166C65.3331 129.5 59.4998 133.583 54.8332 138.833C50.1665 144.083 46.6665 150.5 43.7499 157.5C40.8332 165.083 39.6665 173.249 39.6665 183.166C39.6665 192.499 40.8332 201.249 43.7499 208.833C46.6665 215.833 50.1665 221.666 54.8332 226.916C59.4998 232.166 65.3331 235.666 71.7498 238.583C78.1664 240.916 85.1664 242.666 92.7497 242.666C107.333 242.666 119.583 237.999 129.5 228.666C138.833 219.333 144.083 205.916 144.083 187.833V178.499C144.083 161 139.416 147 129.5 137.666C120.166 127.75 107.916 123.083 92.7497 123.083Z" fill="#3F7CDB"/>
<path d="M459.668 295.167C459.668 316.75 453.835 333.667 441.585 345.917C429.335 358.167 413.002 364 392.585 364C389.085 364 386.752 364 384.418 364C382.085 364 379.752 363.417 376.835 362.833V328.417C379.752 329 383.835 329.584 387.918 329.584C397.835 329.584 405.418 326.667 411.252 320.834C417.085 315 420.002 306.834 420.002 295.75V92.7509H459.085V295.167H459.668ZM459.668 54.8344H420.585V15.1678H459.668V54.8344Z" fill="#3F7CDB"/>
<path d="M561.749 89.2496C585.083 89.2496 603.166 95.0829 615.416 107.333C627.666 119.583 634.083 137.083 634.083 160.416V272.416H594.416V256.666C587.999 262.499 580.999 267.749 572.833 271.249C564.666 274.749 555.916 276.499 545.416 276.499C527.333 276.499 512.75 271.832 501.666 263.082C490.583 253.749 485.333 240.916 485.333 223.999C485.333 214.666 487.083 206.499 490.583 199.499C494.083 193.083 498.75 187.249 504.583 183.166C510.416 179.083 517.416 175.583 525.583 173.249C533.75 170.916 542.5 169.749 551.249 169.166L593.833 166.833V161.583C593.833 149.916 591.499 140.583 586.249 134.166C580.999 127.75 572.833 124.25 561.749 124.25C550.666 124.25 542.5 127.166 537.25 133.583C532 139.416 529.666 146.999 529.666 155.166L490 152.833C490 144.666 491.75 137.083 494.666 129.5C498.166 121.916 502.833 114.916 508.666 109.083C514.5 103.25 522.083 98.5829 531.416 94.4996C540.75 91.583 550.666 89.2496 561.749 89.2496ZM557.083 199.499C547.75 200.083 540.166 201.833 534.333 205.333C528.5 208.833 525.583 214.666 525.583 222.833C525.583 230.416 527.916 235.666 533.166 238.583C538.416 241.499 544.833 243.249 552.416 243.249C565.249 243.249 575.166 240.333 583.333 233.916C590.916 227.499 594.999 217.583 594.999 203.583V197.166L557.083 199.499Z" fill="#3F7CDB"/>
<path d="M701.17 113.166C705.254 106.75 711.67 101.5 719.837 96.8331C728.004 92.1664 738.504 89.8331 751.337 89.8331C761.837 89.8331 771.17 91.5831 779.337 95.0831C788.087 98.583 795.087 103.25 801.503 109.666C807.92 116.083 812.587 123.666 816.087 133C819.587 142.333 821.337 152.833 821.337 164.5V272.999H781.67V169.75C781.67 156.333 778.17 145.25 771.17 137.666C764.17 130.083 754.254 126 742.587 126C729.754 126 719.837 130.083 712.254 138.25C704.67 146.416 700.587 156.916 700.587 169.75V272.416H661.504V0H700.587V113.166H701.17Z" fill="#3F7CDB"/>
<path d="M383.254 132.417L351.754 100.917C344.754 93.9167 334.837 89.8334 324.921 89.8334H275.337C265.421 89.8334 255.504 93.9167 248.504 100.917L217.004 132.417C210.004 139.417 205.921 149.333 205.921 159.25V208.25C205.921 218.166 210.004 228.083 217.004 235.083L254.921 273C257.254 275.333 258.421 278.25 258.421 281.749V296.916C258.421 305.666 265.421 312.666 274.171 312.666H324.337C333.087 312.666 340.087 305.666 340.087 296.916V282.333C340.087 279.416 341.254 275.916 343.587 273.583L382.67 235.083C389.67 228.083 393.754 218.166 393.754 208.25V159.25C394.92 149.333 390.837 140 383.254 132.417ZM354.67 201.833C354.67 207.083 352.92 211.75 349.42 215.833L334.254 232.166C329.004 237.416 327.837 245.583 330.754 252.583L339.504 274.166H261.921L270.671 252.583C273.587 245.583 271.837 238 267.171 232.166L252.004 215.833C248.504 212.333 246.754 207.083 246.754 201.833V166.25C246.754 161 248.504 156.333 252.004 152.833L268.921 133.583C273.004 129.5 278.254 126.583 284.087 126.583H317.337C323.171 126.583 328.421 128.917 332.504 133.583L350.004 152.833C353.504 156.333 355.254 161.583 355.254 166.833V201.833H354.67Z" fill="#3F7CDB"/>
</svg>
